<!DOCTYPE svg PUBLIC "-//W3C//DTD SVG 20010904//EN" "http://www.w3.org/TR/2001/REC-SVG-20010904/DTD/svg10.dtd">
<svg version="1.0" xmlns="http://www.w3.org/2000/svg" width="1600px" height="233px" viewBox="0 0 16000 2330" preserveAspectRatio="xMidYMid meet">
<g id="layer101" fill="#393939" stroke="none">
 <path d="M792 2119 c-217 -28 -404 -108 -513 -220 -50 -51 -120 -177 -118 -213 1 -19 2 -18 8 4 30 96 132 212 241 273 80 44 194 82 308 102 107 18 333 31 358 20 25 -11 116 -6 129 6 7 7 4 15 -9 25 -16 11 -55 14 -180 13 -89 -1 -189 -5 -224 -10z"/>
 <path d="M1020 2044 c-224 -22 -423 -98 -529 -204 -49 -49 -105 -148 -116 -205 -4 -20 0 -15 13 17 68 165 214 268 462 324 92 21 391 29 520 15 520 -60 1075 -295 1461 -619 253 -212 408 -465 409 -667 0 -55 -26 -151 -53 -194 -56 -91 -134 -154 -257 -208 -89 -39 -79 -44 16 -8 86 32 192 103 238 160 63 76 89 147 94 250 3 63 -1 110 -13 155 -59 233 -296 505 -630 725 -334 219 -760 381 -1157 440 -109 15 -375 27 -458 19z"/>
 <path d="M695 2009 c-115 -39 -182 -77 -259 -150 -246 -229 -176 -586 185 -947 101 -102 262 -228 404 -317 125 -79 404 -214 566 -274 232 -86 635 -179 661 -153 16 16 1 42 -24 42 -13 0 -90 14 -172 30 -162 33 -368 97 -540 167 -133 54 -386 181 -386 194 0 5 -4 8 -8 6 -5 -1 -45 20 -88 48 -355 223 -617 522 -680 775 -25 101 -16 218 24 303 57 123 181 220 357 279 44 15 73 27 65 27 -8 0 -55 -13 -105 -30z"/>
 <path d="M765 1887 c-397 -161 -421 -535 -59 -926 321 -348 920 -632 1477 -701 140 -18 416 -8 532 19 218 51 374 167 425 316 25 73 25 96 1 33 -61 -156 -192 -251 -418 -304 -357 -83 -864 1 -1335 223 -54 25 -98 49 -98 52 0 3 -26 7 -58 9 -75 4 -130 35 -156 88 -14 27 -46 58 -95 95 -313 229 -519 553 -482 760 15 87 53 162 109 217 50 49 164 115 237 138 22 7 31 13 20 13 -11 0 -56 -14 -100 -32z"/>
 <path d="M13920 1761 c0 -15 8 -20 36 -23 36 -3 37 -4 65 -83 19 -52 29 -100 29 -138 0 -50 2 -58 18 -55 14 3 18 16 20 74 2 59 -2 85 -29 157 l-31 87 -54 0 c-47 0 -54 -3 -54 -19z"/>
 <path d="M4055 1627 c-92 -31 -140 -72 -176 -152 -28 -62 -22 -76 7 -17 47 95 124 135 259 136 76 0 99 -4 146 -26 104 -48 139 -124 139 -306 0 -122 7 -149 34 -139 13 5 16 25 16 115 0 223 -46 328 -165 378 -53 22 -206 29 -260 11z"/>
 <path d="M4702 1630 c-24 -5 -58 -18 -75 -28 -35 -20 -77 -76 -77 -101 0 -9 9 -2 20 17 29 48 88 72 180 72 99 0 154 -26 190 -90 l25 -45 3 -338 c4 -308 5 -338 20 -335 15 3 17 35 17 353 l0 351 -25 49 c-20 37 -37 55 -70 72 -52 26 -145 36 -208 23z"/>
 <path d="M5216 1630 c-21 -6 -51 -18 -67 -27 -29 -17 -79 -101 -79 -132 0 -8 10 5 23 29 37 73 62 85 177 85 84 0 103 -3 127 -21 47 -34 73 -98 73 -179 0 -105 -26 -150 -146 -263 -108 -102 -123 -122 -124 -167 0 -46 25 -75 65 -75 35 0 62 28 51 53 -3 9 -5 9 -5 0 -1 -7 -12 -13 -26 -13 -30 0 -49 37 -39 76 4 14 50 65 104 115 132 122 165 181 164 295 0 149 -60 218 -199 228 -33 3 -77 1 -99 -4z"/>
 <path d="M6095 1634 c-69 -17 -109 -39 -136 -77 -16 -22 -29 -47 -29 -56 0 -10 8 -3 21 16 31 48 91 73 177 73 40 0 87 -6 105 -14 42 -17 83 -66 97 -114 16 -58 12 -528 -4 -575 -17 -47 -42 -76 -81 -93 -40 -18 -14 -18 28 0 40 16 81 63 99 113 19 55 19 532 -1 588 -21 61 -50 96 -97 116 -43 19 -142 32 -179 23z"/>
 <path d="M8635 1636 c-5 -3 -27 -7 -48 -11 -45 -7 -105 -57 -123 -102 -21 -49 -17 -50 15 -6 37 51 91 73 179 73 95 0 148 -28 182 -95 25 -50 25 -52 25 -315 0 -254 -1 -267 -22 -310 -15 -30 -36 -54 -60 -68 -21 -12 -31 -22 -23 -22 33 0 96 47 120 90 25 44 25 49 28 308 3 213 0 273 -12 315 -17 58 -54 103 -100 122 -32 14 -143 28 -161 21z"/>
 <path d="M10277 1626 c-84 -23 -155 -102 -172 -191 -3 -20 0 -16 11 14 23 61 80 114 140 132 28 8 87 14 137 13 76 -1 96 -5 145 -30 49 -25 61 -38 87 -88 28 -56 30 -67 30 -170 0 -103 -2 -115 -29 -169 -31 -61 -93 -130 -238 -262 -95 -88 -117 -130 -104 -200 10 -50 37 -75 84 -75 42 0 65 18 77 60 l7 25 -17 -22 c-19 -27 -51 -29 -83 -7 -18 13 -22 25 -22 72 l0 57 153 150 c166 163 199 212 217 319 12 76 -3 194 -33 253 -29 60 -80 100 -148 118 -66 18 -177 18 -242 1z"/>
 <path d="M12642 1630 c-24 -5 -58 -18 -76 -29 -31 -20 -86 -104 -86 -132 0 -8 7 0 16 16 40 77 91 105 191 105 87 -1 142 -24 174 -76 20 -33 25 -55 29 -149 5 -102 7 -110 25 -110 19 0 20 6 19 115 -1 96 -4 122 -21 155 -24 47 -58 80 -94 93 -40 16 -130 21 -177 12z"/>
 <path d="M13559 1631 c-77 -16 -128 -64 -144 -136 -6 -26 -4 -24 15 12 33 63 87 86 194 82 72 -4 87 -8 119 -32 62 -47 85 -170 51 -273 -14 -40 -37 -69 -135 -165 -118 -115 -119 -116 -119 -162 0 -55 19 -77 66 -77 28 0 36 5 44 26 14 35 13 36 -10 22 -25 -16 -54 -1 -58 31 -6 41 18 77 101 151 141 125 176 195 165 334 -7 85 -36 139 -90 164 -48 23 -145 34 -199 23z"/>
 <path d="M15437 1630 c-80 -20 -133 -69 -152 -140 -4 -17 2 -12 19 17 36 57 92 83 182 83 149 0 202 -63 203 -242 1 -91 2 -98 21 -98 27 0 34 35 27 141 -10 130 -36 183 -108 219 -43 23 -141 32 -192 20z"/>
 <path d="M5617 1624 c-4 -4 -7 -16 -7 -26 0 -16 9 -18 75 -18 l75 0 0 -345 0 -345 55 0 55 0 0 -56 c0 -47 3 -55 18 -52 14 3 17 15 17 73 l0 70 -52 3 -53 3 -2 347 -3 347 -85 3 c-47 1 -89 0 -93 -4z"/>
 <path d="M6454 1616 c-10 -27 6 -36 67 -36 l59 0 1 -272 1 -273 27 110 c25 104 26 120 21 295 l-5 185 -83 3 c-66 2 -83 0 -88 -12z"/>
 <path d="M6967 1624 c-4 -4 -7 -16 -7 -26 0 -16 9 -18 65 -18 l65 0 0 -401 c0 -376 1 -400 18 -397 16 3 17 31 17 423 l0 420 -75 3 c-42 1 -79 0 -83 -4z"/>
 <path d="M7427 1623 c-4 -3 -7 -15 -7 -25 0 -16 9 -18 90 -18 l90 0 1 -382 1 -383 22 92 c21 84 23 120 25 390 1 164 -1 306 -4 316 -6 15 -21 17 -109 17 -57 0 -106 -3 -109 -7z"/>
 <path d="M8127 1624 c-4 -4 -7 -16 -7 -26 0 -16 10 -18 95 -18 l95 0 0 -555 c0 -549 0 -555 20 -555 20 0 20 5 18 578 l-3 577 -106 3 c-58 1 -108 -1 -112 -4z"/>
 <path d="M8984 1616 c-12 -32 7 -36 166 -36 l159 0 3 -47 c3 -40 6 -48 23 -48 18 0 20 7 20 70 l0 70 -183 3 c-153 2 -183 0 -188 -12z"/>
 <path d="M9381 1609 l-8 -24 156 -5 c166 -5 182 -10 224 -60 41 -48 49 -115 45 -372 -3 -262 -10 -291 -77 -335 -39 -26 -35 -29 12 -9 43 18 84 67 97 118 8 26 10 133 8 302 -3 257 -3 262 -28 306 -17 30 -40 53 -70 70 -41 23 -57 25 -197 28 l-153 4 -9 -23z"/>
 <path d="M10757 1624 c-4 -4 -7 -16 -7 -26 0 -17 12 -18 165 -18 l165 0 0 -51 c0 -47 2 -50 23 -47 20 3 22 8 22 73 l0 70 -181 3 c-99 1 -183 -1 -187 -4z"/>
 <path d="M11187 1624 c-4 -4 -7 -16 -7 -26 0 -16 9 -18 75 -18 l75 0 0 -185 0 -185 44 0 c47 0 76 18 76 48 0 12 -3 13 -12 4 -7 -7 -25 -12 -40 -12 l-28 0 -2 188 -3 187 -85 3 c-47 1 -89 0 -93 -4z"/>
 <path d="M11467 1623 c-4 -3 -7 -15 -7 -25 0 -16 9 -18 70 -18 l70 0 0 -134 c0 -176 -11 -233 -50 -267 -28 -24 -29 -27 -12 -31 40 -11 57 -55 57 -152 0 -112 -8 -141 -47 -178 -35 -33 -27 -36 19 -8 55 33 68 70 68 197 0 98 -3 115 -22 140 l-21 30 21 32 c18 29 21 56 28 219 4 102 5 190 3 194 -6 10 -168 11 -177 1z"/>
 <path d="M11807 1623 c-2 -4 -7 -21 -10 -38 -4 -16 -4 -24 -1 -17 4 8 34 12 97 12 l92 0 59 -342 c32 -189 63 -369 68 -400 8 -47 14 -58 29 -58 29 0 25 31 -49 460 l-68 385 -106 3 c-59 1 -108 -1 -111 -5z"/>
 <path d="M12214 1616 c-11 -28 7 -36 77 -36 l69 0 0 -401 c0 -376 1 -400 18 -397 16 3 17 31 17 423 l0 420 -88 3 c-70 2 -88 0 -93 -12z"/>
 <path d="M12997 1624 c-4 -4 -7 -16 -7 -26 0 -17 12 -18 165 -18 l165 0 0 -51 c0 -47 2 -50 23 -47 20 3 22 8 22 73 l0 70 -181 3 c-99 1 -183 -1 -187 -4z"/>
 <path d="M13894 1615 c-9 -22 4 -35 35 -35 25 0 28 3 23 25 -3 18 -11 25 -28 25 -14 0 -27 -7 -30 -15z"/>
 <path d="M14367 1624 c-4 -4 -7 -16 -7 -26 0 -16 10 -18 100 -18 l100 0 1 -552 c1 -304 1 -556 0 -560 0 -4 9 -4 22 1 l22 8 0 574 0 574 -116 3 c-63 1 -118 -1 -122 -4z"/>
 <path d="M14722 1618 c-28 -28 -13 -38 59 -38 l70 0 -3 -244 c-2 -134 -2 -244 -2 -243 2 2 188 443 201 475 3 7 25 12 59 12 l54 0 0 -401 c0 -376 1 -400 18 -397 16 3 17 31 17 423 l0 420 -68 0 -68 0 -79 -189 c-44 -104 -81 -191 -83 -192 -2 -2 -1 78 1 176 3 134 1 184 -8 195 -16 19 -150 21 -168 3z"/>
 <path d="M15807 1624 c-4 -4 -7 -16 -7 -26 0 -15 8 -18 60 -18 l60 0 0 -56 c0 -52 1 -55 23 -52 21 3 22 8 22 78 l0 75 -75 3 c-42 1 -79 0 -83 -4z"/>
 <path d="M6717 1614 c-21 -22 -4 -33 55 -36 l61 -3 63 -270 63 -270 0 100 c1 84 -6 131 -43 290 l-43 190 -75 3 c-40 1 -77 0 -81 -4z"/>
 <path d="M7786 1604 c-3 -9 -6 -18 -6 -20 0 -2 38 -4 84 -4 l84 0 31 -132 c17 -73 58 -248 90 -388 l59 -255 1 100 c1 90 -6 132 -69 404 -39 167 -70 305 -70 307 0 2 -45 4 -99 4 -81 0 -100 -3 -105 -16z"/>
 <path d="M1165 1511 c-48 -22 -79 -54 -100 -103 -21 -52 -18 -61 6 -15 40 75 148 114 245 88 100 -27 136 -89 142 -249 4 -97 7 -113 21 -110 13 3 16 21 19 107 6 219 -57 301 -233 301 -37 0 -75 -8 -100 -19z"/>
 <path d="M2429 1521 c-59 -19 -98 -56 -113 -111 -7 -24 -7 -24 12 4 30 44 76 67 139 73 162 15 246 -81 230 -259 -8 -88 -40 -142 -155 -260 -101 -103 -105 -110 -110 -158 -4 -39 -1 -55 13 -70 25 -27 70 -26 89 2 21 30 20 41 -3 27 -39 -25 -71 19 -57 77 4 14 56 77 115 139 136 142 154 181 149 323 -3 94 -3 94 -43 137 -66 72 -175 103 -266 76z"/>
 <path d="M1557 1506 c-9 -22 2 -26 71 -26 l65 0 -6 -302 -6 -303 27 120 c26 114 27 130 22 320 l-5 200 -81 3 c-64 2 -83 0 -87 -12z"/>
 <path d="M1816 1504 c-11 -28 -7 -31 52 -33 31 -1 60 -5 63 -9 4 -4 33 -133 65 -287 l59 -280 3 100 c2 86 -3 129 -38 295 -22 107 -43 203 -46 213 -8 24 -149 26 -158 1z"/>
 <path d="M2060 1500 c0 -18 7 -20 65 -20 l65 0 0 -436 c0 -394 2 -436 16 -430 9 3 18 6 20 6 2 0 4 203 4 450 l0 450 -85 0 c-78 0 -85 -2 -85 -20z"/>
 <path d="M4707 1472 c-15 -17 -17 -56 -17 -356 0 -316 1 -337 18 -334 16 3 17 29 20 342 1 230 6 344 13 353 18 21 -15 16 -34 -5z"/>
 <path d="M5226 1471 c-13 -14 -19 -44 -23 -101 l-6 -82 24 4 c23 3 24 7 27 88 2 46 8 90 14 97 18 22 -16 16 -36 -6z"/>
 <path d="M6084 1469 c-17 -19 -19 -42 -22 -257 -4 -251 0 -292 24 -317 21 -21 67 -19 87 3 25 27 22 46 -3 30 -15 -10 -25 -10 -38 -2 -15 10 -17 37 -20 275 -2 239 -1 265 15 277 15 11 15 12 -4 12 -11 0 -28 -9 -39 -21z"/>
 <path d="M8614 1476 c-18 -14 -19 -30 -22 -281 -3 -229 -1 -270 13 -291 25 -39 105 -29 105 13 0 9 -8 11 -24 7 -19 -4 -28 0 -41 19 -14 22 -16 57 -13 277 2 210 5 252 18 260 13 9 13 10 -1 10 -8 0 -24 -6 -35 -14z"/>
 <path d="M9520 1185 l0 -305 43 0 c51 0 63 7 77 45 11 28 10 28 -8 12 -10 -9 -28 -17 -40 -17 l-22 0 0 285 0 285 -25 0 -25 0 0 -305z"/>
 <path d="M12644 1469 c-17 -19 -19 -41 -22 -248 -5 -307 2 -341 67 -341 29 0 43 11 54 42 5 15 4 16 -13 5 -32 -20 -54 2 -63 64 -13 86 -4 464 12 483 21 25 -12 21 -35 -5z"/>
 <path d="M13573 1482 c-21 -13 -33 -61 -33 -128 0 -56 2 -64 19 -64 16 0 19 10 23 84 2 49 10 91 17 100 11 13 11 16 0 16 -8 0 -19 -4 -26 -8z"/>
 <path d="M15453 1482 c-27 -17 -33 -70 -33 -303 0 -278 5 -298 72 -299 17 0 31 7 38 19 16 31 13 43 -10 29 -16 -11 -23 -10 -37 5 -16 16 -18 42 -18 271 0 200 3 256 14 269 11 14 11 17 0 17 -8 0 -19 -4 -26 -8z"/>
 <path d="M9130 1129 c0 -328 1 -350 18 -347 16 3 17 29 20 351 2 342 2 347 -18 347 -20 0 -20 -6 -20 -351z"/>
 <path d="M10900 1350 l0 -130 85 0 85 0 0 -50 c0 -44 3 -50 20 -50 19 0 21 5 18 73 l-3 72 -82 3 -83 3 0 104 c0 98 -1 105 -20 105 -19 0 -20 -7 -20 -130z"/>
 <path d="M13140 1350 l0 -130 85 0 85 0 0 -51 c0 -43 3 -50 18 -47 14 3 17 15 17 73 l0 70 -82 3 -83 3 0 104 c0 98 -1 105 -20 105 -19 0 -20 -7 -20 -130z"/>
 <path d="M4090 1430 c-11 -11 -23 -32 -27 -47 -14 -50 -10 -683 5 -724 27 -75 126 -80 151 -8 15 43 14 60 -2 29 -9 -19 -22 -26 -50 -28 -64 -5 -67 12 -67 397 0 323 4 375 33 393 8 5 6 8 -5 8 -10 0 -27 -9 -38 -20z"/>
 <path d="M10319 1431 c-22 -18 -24 -27 -27 -141 -3 -114 -3 -122 15 -118 16 3 19 17 24 123 4 66 7 121 8 122 0 1 8 9 17 17 24 24 -7 21 -37 -3z"/>
 <path d="M11846 1103 c-27 -164 -51 -304 -54 -310 -2 -8 4 -13 16 -13 23 0 22 -3 68 250 30 170 38 268 27 328 -7 36 -14 3 -57 -255z"/>
 <path d="M1215 1355 l-25 -24 0 -278 c0 -309 3 -326 57 -331 23 -2 35 3 47 20 20 29 23 61 2 33 -17 -23 -43 -14 -56 20 -6 15 -10 137 -10 278 0 199 3 258 14 280 18 34 3 35 -29 2z"/>
 <path d="M2459 1361 c-20 -16 -23 -29 -27 -110 -4 -85 -3 -91 15 -91 18 0 21 9 27 98 5 73 11 100 23 110 15 11 15 12 1 12 -9 0 -26 -8 -39 -19z"/>
 <path d="M5305 1334 c-11 -20 -53 -64 -93 -97 -75 -62 -123 -121 -137 -167 -6 -19 0 -15 22 15 17 22 67 74 112 115 76 68 127 137 119 161 -2 5 -12 -7 -23 -27z"/>
 <path d="M6771 1356 c0 -4 -30 -132 -66 -284 -36 -151 -65 -279 -65 -284 0 -18 31 -7 39 15 4 12 32 124 61 250 46 199 51 233 43 270 -6 23 -11 38 -12 33z"/>
 <path d="M13548 1240 c-69 -68 -114 -121 -127 -150 -30 -66 -26 -83 5 -22 19 38 50 73 111 125 78 67 129 127 121 145 -2 4 -51 -40 -110 -98z"/>
 <path d="M3844 1035 c0 -154 2 -216 3 -137 2 79 2 205 0 280 -1 75 -3 11 -3 -143z"/>
 <path d="M10441 1245 c-8 -23 -48 -67 -114 -127 -56 -51 -116 -108 -135 -127 -37 -37 -92 -128 -92 -151 0 -8 13 8 30 36 17 31 66 85 117 130 135 121 180 171 199 220 9 24 15 46 12 49 -2 2 -10 -11 -17 -30z"/>
 <path d="M7775 883 c-48 -208 -90 -386 -93 -395 -3 -13 2 -18 16 -18 15 0 22 9 27 32 4 18 42 182 85 363 72 305 86 395 61 395 -4 0 -47 -170 -96 -377z"/>
 <path d="M14968 1103 c-37 -87 -82 -195 -102 -240 -31 -73 -33 -83 -17 -83 24 0 175 350 185 428 4 28 5 52 3 52 -2 0 -33 -71 -69 -157z"/>
 <path d="M1811 949 c-36 -162 -66 -304 -69 -316 -4 -24 4 -28 25 -15 14 9 123 498 122 545 -3 106 -17 68 -78 -214z"/>
 <path d="M2536 1214 c-3 -12 -45 -59 -92 -105 -82 -80 -144 -166 -144 -199 0 -8 8 1 18 20 9 19 58 76 108 125 89 88 129 144 121 168 -2 7 -7 2 -11 -9z"/>
 <path d="M12757 1134 c-4 -4 -7 -13 -7 -21 0 -10 18 -13 70 -13 l70 0 0 -93 c0 -109 -22 -167 -80 -206 -29 -19 -31 -22 -10 -16 94 26 145 129 138 281 l-3 69 -85 3 c-47 1 -89 0 -93 -4z"/>
 <path d="M15550 1120 c0 -18 7 -20 71 -20 l71 0 -4 -104 c-3 -91 -6 -108 -30 -143 -14 -22 -41 -47 -59 -56 -38 -19 -26 -23 18 -6 82 31 112 97 113 242 l0 107 -90 0 c-83 0 -90 -1 -90 -20z"/>
 <path d="M10900 1005 l0 -115 90 0 90 0 0 -56 c0 -47 3 -55 18 -52 14 3 17 15 17 73 l0 70 -87 3 -88 3 0 94 c0 88 -1 95 -20 95 -19 0 -20 -7 -20 -115z"/>
 <path d="M13140 1005 l0 -115 90 0 90 0 0 -56 c0 -47 3 -55 18 -52 14 3 17 15 17 73 l0 70 -87 3 -88 3 0 94 c0 88 -1 95 -20 95 -19 0 -20 -7 -20 -115z"/>
 <path d="M11330 995 l0 -115 50 0 c38 0 52 4 60 19 15 28 14 49 -2 33 -7 -7 -25 -12 -40 -12 l-28 0 0 95 c0 88 -1 95 -20 95 -19 0 -20 -7 -20 -115z"/>
 <path d="M5331 1076 c-21 -26 -2 -36 65 -36 l64 0 0 -57 c-1 -83 -27 -152 -69 -180 -19 -13 -28 -23 -20 -23 26 0 80 40 100 75 20 34 23 35 80 35 52 0 59 2 59 20 0 18 -7 20 -55 20 l-54 0 -3 78 -3 77 -76 3 c-58 2 -79 -1 -88 -12z"/>
 <path d="M13673 1084 c-7 -3 -13 -14 -13 -25 0 -17 8 -19 71 -19 l72 0 -6 -68 c-7 -88 -31 -146 -70 -172 -29 -19 -29 -21 -7 -15 80 22 113 83 114 210 l1 90 -75 2 c-41 1 -81 -1 -87 -3z"/>
 <path d="M1322 988 c-29 -29 -13 -38 64 -38 l77 0 -6 -99 c-7 -138 -38 -201 -117 -235 -8 -3 -1 -3 15 0 46 9 95 52 118 103 18 38 22 66 22 161 l0 115 -80 3 c-54 2 -84 -1 -93 -10z"/>
 <path d="M4234 935 c-11 -29 7 -35 103 -35 l95 0 -4 -132 c-4 -120 -7 -138 -31 -185 -27 -52 -60 -82 -119 -108 -18 -8 -26 -14 -18 -15 32 0 118 49 148 86 18 22 39 62 48 89 21 69 31 279 14 300 -18 21 -228 22 -236 0z"/>
 <path d="M2557 934 c-4 -4 -7 -13 -7 -21 0 -10 19 -13 71 -13 l72 0 -6 -80 c-8 -99 -34 -162 -79 -191 -18 -12 -25 -18 -15 -15 10 3 23 6 27 6 5 0 25 14 44 30 43 38 69 126 64 220 l-3 65 -80 3 c-45 1 -84 0 -88 -4z"/>
 <path d="M10457 864 c-4 -4 -7 -13 -7 -21 0 -10 23 -13 95 -13 l95 0 0 -83 c0 -115 -21 -181 -75 -235 -32 -31 -37 -41 -22 -36 44 13 80 49 104 101 27 59 46 168 41 241 l-3 47 -111 3 c-60 1 -113 -1 -117 -4z"/>
 </g>
<g id="layer102" fill="#ffffff" stroke="none">
 <path d="M860 2083 c-88 -6 -229 -33 -306 -59 -202 -65 -341 -191 -390 -353 -18 -60 -18 -179 1 -258 60 -254 322 -558 685 -795 135 -89 430 -234 591 -292 224 -80 471 -140 619 -151 l75 -5 -85 19 c-284 62 -510 140 -765 266 -195 95 -304 162 -461 280 -330 250 -533 554 -534 800 0 66 24 156 57 217 32 60 131 154 205 196 112 64 336 122 475 122 40 0 62 4 58 10 -6 9 -120 11 -225 3z"/>
 <path d="M927 1989 c-319 -47 -518 -193 -557 -411 -21 -114 25 -274 123 -420 229 -344 738 -673 1285 -832 649 -188 1214 -119 1400 172 35 53 62 145 62 207 -1 202 -156 455 -409 667 -377 316 -906 545 -1421 614 -114 15 -389 17 -483 3z m458 -39 c363 -35 773 -174 1104 -375 51 -30 107 -61 126 -69 62 -26 327 -289 405 -402 267 -386 143 -721 -305 -825 -116 -27 -392 -37 -532 -19 -631 78 -1276 415 -1581 825 -55 74 -126 222 -141 293 -82 394 301 630 924 572z"/>
 <path d="M1178 1480 c-45 -13 -87 -49 -111 -93 -21 -41 -22 -51 -22 -337 l0 -296 25 -49 c16 -30 39 -57 60 -69 44 -26 123 -37 179 -25 101 22 140 84 148 240 l6 99 -77 0 -76 0 0 -93 c0 -111 -14 -140 -63 -135 -54 5 -57 22 -57 331 l0 278 25 24 c29 30 36 31 66 6 22 -18 24 -28 27 -130 l4 -111 75 0 76 0 -5 113 c-5 118 -21 169 -66 210 -44 40 -146 58 -214 37z"/>
 <path d="M1550 1048 l0 -438 94 0 93 0 53 243 c29 133 60 276 69 317 l17 75 23 -120 c12 -66 41 -209 63 -317 l41 -198 94 0 93 0 0 435 0 435 -71 0 -72 0 7 -292 c4 -161 6 -291 3 -288 -2 3 -30 129 -62 280 -31 151 -60 278 -64 282 -3 3 -31 8 -61 9 l-55 3 -22 -99 c-13 -55 -43 -190 -67 -300 l-45 -200 6 302 6 301 -72 4 -71 3 0 -437z"/>
 <path d="M2419 1480 c-84 -25 -120 -89 -127 -226 l-5 -94 70 0 71 0 4 91 c4 81 7 94 27 110 29 24 43 24 72 0 21 -17 24 -28 24 -83 -1 -84 -18 -114 -129 -223 -114 -112 -131 -144 -131 -250 0 -145 53 -200 195 -200 133 0 184 56 197 213 l6 82 -72 0 -71 0 0 -68 c0 -80 -17 -112 -59 -112 -45 0 -64 30 -59 90 5 48 9 55 110 158 115 118 147 172 155 260 12 129 -36 227 -122 251 -45 12 -117 13 -156 1z"/>
 <path d="M13920 1728 c0 -7 9 -44 20 -82 l19 -68 -34 4 -35 4 0 -63 0 -63 80 0 80 0 0 58 c0 37 -11 85 -29 137 -28 79 -29 80 -65 83 -25 2 -36 -1 -36 -10z"/>
 <path d="M4061 1590 c-61 -13 -127 -55 -156 -98 -53 -80 -55 -98 -55 -467 0 -387 4 -412 72 -489 45 -52 99 -76 189 -83 131 -11 238 37 285 129 25 48 28 65 32 185 l4 132 -101 3 -101 3 0 -111 c0 -61 -5 -125 -11 -143 -17 -49 -60 -64 -113 -40 -47 22 -51 56 -51 424 0 306 2 343 18 372 32 60 108 56 139 -7 14 -28 18 -61 18 -157 l0 -123 103 0 102 0 -3 127 c-4 197 -37 274 -136 319 -59 27 -168 38 -235 24z"/>
 <path d="M10293 1590 c-142 -30 -203 -128 -203 -326 l0 -94 99 0 99 0 4 121 c3 113 5 122 27 140 30 24 82 24 112 0 19 -16 24 -30 27 -90 7 -124 -14 -158 -215 -338 -120 -108 -153 -170 -153 -283 0 -173 74 -254 243 -267 212 -16 307 75 307 294 l0 83 -94 0 -94 0 -4 -94 c-4 -112 -18 -136 -80 -136 -47 0 -74 25 -84 75 -13 70 9 112 104 200 145 132 207 201 238 262 27 54 29 66 29 169 0 103 -2 114 -30 170 -26 50 -38 62 -85 86 -62 31 -174 44 -247 28z"/>
 <path d="M4630 1568 c-35 -18 -51 -35 -70 -73 -25 -50 -25 -51 -28 -382 l-3 -333 80 0 81 0 0 338 c0 316 1 340 18 355 24 22 54 21 83 -2 l24 -19 3 -336 3 -336 76 0 75 0 -4 338 -3 337 -25 45 c-36 64 -90 90 -190 90 -59 0 -86 -5 -120 -22z"/>
 <path d="M5164 1576 c-63 -28 -104 -118 -104 -228 l0 -58 69 0 68 0 6 81 c6 96 24 124 72 115 16 -4 36 -14 43 -23 17 -24 15 -108 -4 -146 -9 -18 -65 -79 -124 -137 -91 -88 -110 -112 -120 -150 -15 -56 -7 -141 17 -183 32 -53 76 -72 173 -72 141 0 189 46 198 192 l5 73 -72 0 -71 0 0 -61 c0 -79 -11 -99 -55 -99 -40 0 -65 29 -65 75 1 45 16 65 124 167 120 113 146 158 146 263 0 81 -26 145 -73 179 -36 27 -184 34 -233 12z"/>
 <path d="M6009 1567 c-32 -17 -50 -37 -69 -72 -24 -48 -25 -57 -28 -275 -2 -124 -1 -248 3 -277 12 -95 74 -156 172 -169 121 -15 218 34 242 121 14 51 15 517 1 567 -14 48 -55 97 -97 114 -54 23 -172 18 -224 -9z m137 -83 c40 -11 44 -42 44 -311 0 -225 -2 -259 -17 -275 -20 -22 -66 -24 -87 -3 -24 25 -28 66 -24 317 3 215 5 238 22 257 20 22 28 24 62 15z"/>
 <path d="M6450 1183 l0 -403 93 0 93 0 68 287 c37 158 69 289 70 290 1 1 23 -95 49 -215 25 -119 54 -250 63 -289 l16 -73 94 0 94 0 0 399 0 399 -71 4 -72 3 6 -275 6 -275 -63 270 -63 270 -60 3 -61 3 -22 -98 c-12 -54 -42 -177 -65 -273 l-43 -175 -1 272 -1 271 -65 4 -65 3 0 -402z"/>
 <path d="M8543 1571 c-26 -12 -52 -35 -70 -62 l-28 -43 0 -286 0 -286 27 -41 c38 -57 85 -78 183 -78 102 0 154 26 187 94 22 44 23 56 23 311 0 263 0 265 -25 315 -34 68 -87 95 -185 95 -47 0 -84 -7 -112 -19z m157 -107 c13 -12 15 -58 15 -283 0 -296 -1 -301 -61 -301 -63 0 -65 13 -62 315 3 253 4 267 23 281 22 17 61 11 85 -12z"/>
 <path d="M8980 1183 l0 -403 75 0 75 0 0 350 0 350 93 0 92 0 -3 50 -4 49 -164 3 -164 3 0 -402z"/>
 <path d="M12210 1183 l0 -403 75 0 75 0 0 399 0 399 -75 4 -75 3 0 -402z"/>
 <path d="M12584 1576 c-45 -20 -92 -82 -105 -140 -7 -33 -10 -136 -7 -286 3 -229 4 -236 28 -280 44 -78 116 -109 225 -95 69 8 114 38 143 95 18 36 22 61 22 137 l0 93 -70 0 -70 0 0 -82 c0 -117 -21 -150 -85 -134 -40 10 -47 62 -43 326 3 217 5 240 22 259 24 26 47 27 77 2 21 -17 24 -29 27 -120 l4 -101 72 0 71 0 -5 112 c-6 134 -26 178 -94 209 -49 22 -166 25 -212 5z"/>
 <path d="M13493 1570 c-59 -30 -87 -89 -91 -197 l-4 -83 71 0 71 0 0 64 c0 112 28 151 92 127 20 -7 28 -19 33 -50 15 -89 -12 -139 -128 -238 -100 -86 -137 -147 -137 -228 0 -143 79 -207 233 -191 112 11 153 61 164 198 l6 68 -72 0 -71 0 0 -54 c0 -82 -12 -106 -54 -106 -47 0 -66 22 -66 77 0 46 1 47 119 162 98 96 121 125 135 165 34 103 11 226 -51 273 -32 25 -46 28 -122 31 -72 2 -93 -1 -128 -18z"/>
 <path d="M15372 1569 c-29 -15 -51 -36 -70 -68 l-27 -46 -3 -252 c-4 -282 1 -314 54 -373 80 -89 267 -76 332 23 24 35 27 52 30 143 l4 104 -69 0 -70 0 -5 -88 c-6 -104 -18 -132 -56 -132 -67 1 -72 21 -72 298 0 291 8 323 76 306 36 -9 45 -35 51 -140 l6 -94 68 0 69 0 -1 98 c-1 134 -23 186 -95 222 -54 28 -164 27 -222 -1z"/>
 <path d="M5610 1235 l0 -345 -60 0 -60 0 0 -55 0 -55 190 0 190 0 0 55 0 55 -55 0 -55 0 0 345 0 345 -75 0 -75 0 0 -345z"/>
 <path d="M7420 1020 l0 -560 128 0 128 0 94 400 c51 220 97 400 100 400 4 0 10 -19 14 -42 7 -45 153 -710 162 -740 5 -16 20 -18 135 -18 l129 0 0 560 0 560 -97 0 -96 0 5 -387 6 -388 -59 255 c-32 140 -73 315 -90 388 l-31 132 -81 0 -82 0 -68 -282 c-37 -156 -78 -328 -91 -383 l-24 -100 -1 383 -1 382 -90 0 -90 0 0 -560z"/>
 <path d="M9370 1180 l0 -400 140 0 c149 0 192 9 238 52 42 41 52 103 52 339 0 240 -9 304 -48 351 -42 50 -75 58 -237 58 l-145 0 0 -400z m259 286 c14 -14 16 -50 19 -254 2 -130 0 -251 -3 -269 -8 -47 -29 -63 -81 -63 l-44 0 0 306 0 307 46 -6 c25 -2 53 -12 63 -21z"/>
 <path d="M10750 1180 l0 -400 165 0 165 0 0 55 0 55 -90 0 -90 0 0 115 0 115 85 0 85 0 0 50 0 50 -85 0 -85 0 0 130 0 130 90 0 90 0 0 50 0 50 -165 0 -165 0 0 -400z"/>
 <path d="M11180 1180 l0 -400 153 0 c129 0 158 3 187 19 59 31 75 71 75 186 0 108 -15 152 -57 163 -17 4 -16 7 12 31 39 34 50 91 50 267 l0 134 -75 0 -75 0 0 -169 c0 -195 -2 -201 -76 -201 l-44 0 0 185 0 185 -75 0 -75 0 0 -400z m257 -100 c15 -30 17 -154 3 -181 -8 -15 -22 -19 -60 -19 l-50 0 0 116 0 115 47 -3 c39 -2 50 -7 60 -28z"/>
 <path d="M11796 1563 c-2 -10 -12 -56 -20 -103 -9 -47 -34 -179 -55 -295 -22 -115 -45 -239 -51 -275 -6 -36 -14 -75 -17 -87 -5 -22 -3 -23 66 -23 65 0 71 2 76 23 3 12 27 153 54 312 l48 290 12 -105 c7 -58 26 -194 42 -304 16 -109 29 -202 29 -207 0 -5 32 -9 71 -9 l72 0 -6 28 c-3 15 -34 195 -68 400 l-64 372 -92 0 c-79 0 -92 -2 -97 -17z"/>
 <path d="M12990 1180 l0 -400 165 0 165 0 0 55 0 55 -90 0 -90 0 0 115 0 115 85 0 85 0 0 50 0 50 -85 0 -85 0 0 130 0 130 90 0 90 0 0 50 0 50 -165 0 -165 0 0 -400z"/>
 <path d="M14360 1020 l0 -561 103 3 c56 2 101 6 100 11 -2 4 -3 255 -3 557 l0 550 -100 0 -100 0 0 -560z"/>
 <path d="M14710 1180 l0 -401 62 3 62 3 100 237 c55 131 101 236 102 235 1 -1 -2 -51 -6 -112 -5 -60 -9 -167 -9 -237 l-1 -128 70 0 70 0 0 400 0 400 -54 0 c-34 0 -56 -5 -59 -12 -13 -32 -199 -473 -201 -475 0 -1 0 109 2 243 l3 244 -70 0 -71 0 0 -400z"/>
 <path d="M15800 1525 l0 -55 60 0 60 0 0 55 0 55 -60 0 -60 0 0 -55z"/>
 </g>

</svg>